# xmcd
#
# Track frame offsets: 
#        150
#        17142
#        34929
#        49709
#        67618
#        83083
#        101270
#        115652
#        133320
#        152598
#
# Disc length: 2256 seconds
#
# Revision: 0
# Processed by: cddbd v1.5.2PL0 Copyright (c) Steve Scherf et al.
# Submitted via: ExactAudioCopy v1.3
#
DISCID=7208ce0a
DTITLE=Mark Cameron - Get Er Done
DYEAR=2007
DGENRE=Contemporary Country
TTITLE0=Get Er Done
TTITLE1=Bring It On
TTITLE2=I Met George Jones Today
TTITLE3=I Didn't Know
TTITLE4=Long Tall Sally
TTITLE5=I Don't Wanna Go
TTITLE6=Smooth
TTITLE7=You Gotta Move On
TTITLE8=The Long Ride
TTITLE9=What A Waste Of A Life
EXTD=
EXTT0=
EXTT1=
EXTT2=
EXTT3=
EXTT4=
EXTT5=
EXTT6=
EXTT7=
EXTT8=
EXTT9=
PLAYORDER=
